<mxfile host="app.diagrams.net" modified="2024-05-12T04:06:38.420Z" agent="Mozilla/5.0 (Macintosh; Intel Mac OS X 10_15_7) AppleWebKit/537.36 (KHTML, like Gecko) Chrome/124.0.0.0 Safari/537.36" version="24.2.8" etag="YvfS_0hvbl4B-cx0QQrz" type="github">
  <diagram name="第 1 页" id="UFbC_MBn3Odc2LgTUzDm">
    <mxGraphModel>
      <root>
        <mxCell id="0" />
        <mxCell id="1" parent="0" />
      </root>
    </mxGraphModel>
  </diagram>
</mxfile>
